0
SECTION
2
HEADER
9
$INSUNITS
70
4
9
$ACADVER
1
AC1014
9
$HANDSEED
5
FFFF
0
ENDSEC
0
SECTION
2
TABLES
0
TABLE
2
VPORT
5
8
100
AcDbSymbolTable
0
ENDTAB
0
TABLE
2
LTYPE
5
5
100
AcDbSymbolTable
0
LTYPE
5
14
100
AcDbSymbolTableRecord
100
AcDbLinetypeTableRecord
2
BYBLOCK
70
0
0
LTYPE
5
15
100
AcDbSymbolTableRecord
100
AcDbLinetypeTableRecord
2
BYLAYER
70
0
0
ENDTAB
0
TABLE
2
LAYER
5
2
100
AcDbSymbolTable
70
2
0
LAYER
5
50
100
AcDbSymbolTableRecord
100
AcDbLayerTableRecord
2
0
70
0
6
CONTINUOUS
0
ENDTAB
0
TABLE
2
STYLE
5
3
100
AcDbSymbolTable
70
1
0
STYLE
5
11
100
AcDbSymbolTableRecord
100
AcDbTextStyleTableRecord
2
STANDARD
70
0
0
ENDTAB
0
TABLE
2
VIEW
5
6
100
AcDbSymbolTable
70
0
0
ENDTAB
0
TABLE
2
UCS
5
7
100
AcDbSymbolTable
70
0
0
ENDTAB
0
TABLE
2
APPID
5
9
100
AcDbSymbolTable
70
2
0
APPID
5
12
100
AcDbSymbolTableRecord
100
AcDbRegAppTableRecord
2
ACAD
70
0
0
ENDTAB
0
TABLE
2
DIMSTYLE
5
A
100
AcDbSymbolTable
70
1
0
ENDTAB
0
TABLE
2
BLOCK_RECORD
5
1
100
AcDbSymbolTable
70
1
0
BLOCK_RECORD
5
1F
100
AcDbSymbolTableRecord
100
AcDbBlockTableRecord
2
*MODEL_SPACE
0
BLOCK_RECORD
5
1B
100
AcDbSymbolTableRecord
100
AcDbBlockTableRecord
2
*PAPER_SPACE
0
ENDTAB
0
ENDSEC
0
SECTION
2
BLOCKS
0
BLOCK
5
20
100
AcDbEntity
100
AcDbBlockBegin
2
*MODEL_SPACE
0
ENDBLK
5
21
100
AcDbEntity
100
AcDbBlockEnd
0
BLOCK
5
1C
100
AcDbEntity
100
AcDbBlockBegin
2
*PAPER_SPACE
0
ENDBLK
5
1D
100
AcDbEntity
100
AcDbBlockEnd
0
ENDSEC
0
SECTION
2
ENTITIES
0
ARC
5
100
100
AcDbEntity
8
0
100
AcDbCircle
10
-37.140740000634892
20
-31.180782026191412
30
0
40
100.64677765198324
210
0
220
0
230
1
100
AcDbArc
50
202.68705333744632
51
231.35060410985784
0
LINE
5
101
100
AcDbEntity
8
0
100
AcDbLine
10
-100
20
-109.78413617892443
30
0
11
-100
21
-80
31
0
0
LINE
5
102
100
AcDbEntity
8
0
100
AcDbLine
10
-100
20
-80
30
0
11
-20.000000000000032
21
-79.999999999999972
31
0
0
LINE
5
103
100
AcDbEntity
8
0
100
AcDbLine
10
-20.000000000000032
20
-79.999999999999972
30
0
11
-19.999999999999982
21
-109.99243147805538
31
0
0
LINE
5
104
100
AcDbEntity
8
0
100
AcDbLine
10
-19.999999999999982
20
-109.99243147805538
30
0
11
19.801009904328268
21
-109.99243147805538
31
0
0
LINE
5
105
100
AcDbEntity
8
0
100
AcDbLine
10
19.801009904328268
20
-109.99243147805538
30
0
11
19.801009904328268
21
-80.000001192092924
31
0
0
LINE
5
106
100
AcDbEntity
8
0
100
AcDbLine
10
19.801009904328268
20
-80.000001192092924
30
0
11
100.00000149011612
21
-80.000001192092896
31
0
0
LINE
5
107
100
AcDbEntity
8
0
100
AcDbLine
10
100.00000149011612
20
-80.000001192092896
30
0
11
100.00000149011612
21
-110.00000163912773
31
0
0
CIRCLE
5
108
100
AcDbEntity
8
0
100
AcDbCircle
10
0
20
0
30
0
40
15.000000223517418
210
0
220
0
230
1
0
CIRCLE
5
109
100
AcDbEntity
8
0
100
AcDbCircle
10
-75.000001117587061
20
-64.000000953674373
30
0
40
1.6000000000000003
210
0
220
0
230
1
0
CIRCLE
5
110
100
AcDbEntity
8
0
100
AcDbCircle
10
-75.000001117587033
20
-76.000001132488293
30
0
40
1.6000000000000032
210
0
220
0
230
1
0
CIRCLE
5
111
100
AcDbEntity
8
0
100
AcDbCircle
10
-45.000000670552254
20
-76.000001132488251
30
0
40
1.6000000000000003
210
0
220
0
230
1
0
CIRCLE
5
112
100
AcDbEntity
8
0
100
AcDbCircle
10
-45.000000670552282
20
-64.000000953674331
30
0
40
1.6000000000000025
210
0
220
0
230
1
0
CIRCLE
5
113
100
AcDbEntity
8
0
100
AcDbCircle
10
99.999999999999986
20
69.999999999999986
30
0
40
1.9999999999999929
210
0
220
0
230
1
0
CIRCLE
5
114
100
AcDbEntity
8
0
100
AcDbCircle
10
100.00000000000001
20
-70.000000000000014
30
0
40
1.9999999999999931
210
0
220
0
230
1
0
CIRCLE
5
115
100
AcDbEntity
8
0
100
AcDbCircle
10
-99.624854693935291
20
-70.723107418184355
30
0
40
1.9999999999999929
210
0
220
0
230
1
0
LWPOLYLINE
5
116
100
AcDbEntity
8
0
100
AcDbPolyline
90
4
70
1
43
0.0
10
106.15086415510609
20
60.219415689174213
10
109.15086415510609
20
60.219415689174213
10
109.15086415510609
20
-60
10
106.15086415510609
20
-60
0
LINE
5
117
100
AcDbEntity
8
0
100
AcDbLine
10
-75.000001117587033
20
-77.600001132488302
30
0
11
-75.000001117587033
21
-76.000001132488293
31
0
0
CIRCLE
5
118
100
AcDbEntity
8
0
100
AcDbCircle
10
-75.000001117587061
20
64.000000953674416
30
0
40
1.6000000000000003
210
0
220
0
230
1
0
CIRCLE
5
119
100
AcDbEntity
8
0
100
AcDbCircle
10
-45.000000670552282
20
64.000000953674373
30
0
40
1.6000000000000025
210
0
220
0
230
1
0
CIRCLE
5
120
100
AcDbEntity
8
0
100
AcDbCircle
10
-45.000000670552254
20
76.000001132488279
30
0
40
1.6000000000000003
210
0
220
0
230
1
0
CIRCLE
5
121
100
AcDbEntity
8
0
100
AcDbCircle
10
-75.000001117587033
20
76.000001132488336
30
0
40
1.6000000000000032
210
0
220
0
230
1
0
CIRCLE
5
122
100
AcDbEntity
8
0
100
AcDbCircle
10
-99.624854693935276
20
70.723107418184384
30
0
40
1.9999999999999929
210
0
220
0
230
1
0
LWPOLYLINE
5
123
100
AcDbEntity
8
0
100
AcDbPolyline
90
2
70
1
43
0.0
10
-100
20
109.78413617892446
10
-100
20
80.000000000000028
0
ARC
5
124
100
AcDbEntity
8
0
100
AcDbCircle
10
-34.797735501165057
20
29.413994011290509
30
0
40
103.49248788111012
210
0
220
0
230
1
100
AcDbArc
50
129.05154627608627
51
156.91079627660929
0
LINE
5
125
100
AcDbEntity
8
0
100
AcDbLine
10
-100
20
80.000000000000028
30
0
11
-20
21
80.000000000000028
31
0
0
ARC
5
126
100
AcDbEntity
8
0
100
AcDbCircle
10
-79.878808098336663
20
-2.037928329597094e-06
30
0
40
210.84683078297078
210
-0
220
0
230
1
100
AcDbArc
50
-31.446738140052652
51
31.446738916210293
0
LINE
5
127
100
AcDbEntity
8
0
100
AcDbLine
10
19.801009904328275
20
80.000001192092967
30
0
11
100.00000149011612
21
80.000001192092924
31
0
0
LINE
5
128
100
AcDbEntity
8
0
100
AcDbLine
10
19.801009904328275
20
109.99243147805542
30
0
11
19.801009904328275
21
80.000001192092967
31
0
0
LINE
5
129
100
AcDbEntity
8
0
100
AcDbLine
10
100.00000149011612
20
80.000001192092924
30
0
11
100.00000149011612
21
110.00000163912776
31
0
0
LINE
5
130
100
AcDbEntity
8
0
100
AcDbLine
10
-0.099495047835853612
20
109.99243147805542
30
0
11
19.801009904328275
21
109.99243147805542
31
0
0
CIRCLE
5
131
100
AcDbEntity
8
0
100
AcDbCircle
10
44.801010574880571
20
-64.000000953674331
30
0
40
1.6000000000000025
210
0
220
0
230
1
0
CIRCLE
5
132
100
AcDbEntity
8
0
100
AcDbCircle
10
44.80101057488055
20
-76.000001132488251
30
0
40
1.6000000000000003
210
0
220
0
230
1
0
CIRCLE
5
133
100
AcDbEntity
8
0
100
AcDbCircle
10
74.801011021915329
20
-76.000001132488293
30
0
40
1.6000000000000032
210
0
220
0
230
1
0
CIRCLE
5
134
100
AcDbEntity
8
0
100
AcDbCircle
10
74.801011021915357
20
-64.000000953674373
30
0
40
1.6000000000000003
210
0
220
0
230
1
0
CIRCLE
5
135
100
AcDbEntity
8
0
100
AcDbCircle
10
74.801011021915329
20
76.000001132488336
30
0
40
1.6000000000000032
210
0
220
0
230
1
0
CIRCLE
5
136
100
AcDbEntity
8
0
100
AcDbCircle
10
44.801010574880571
20
64.000000953674373
30
0
40
1.6000000000000025
210
0
220
0
230
1
0
CIRCLE
5
137
100
AcDbEntity
8
0
100
AcDbCircle
10
44.80101057488055
20
76.000001132488279
30
0
40
1.6000000000000003
210
0
220
0
230
1
0
CIRCLE
5
138
100
AcDbEntity
8
0
100
AcDbCircle
10
74.801011021915357
20
64.000000953674416
30
0
40
1.6000000000000003
210
0
220
0
230
1
0
LINE
5
139
100
AcDbEntity
8
0
100
AcDbLine
10
-20
20
80.000000000000028
30
0
11
-20
21
110
31
0
0
LINE
5
140
100
AcDbEntity
8
0
100
AcDbLine
10
-0.099495047835853612
20
109.99243147805542
30
0
11
-20
21
110
31
0
0
LINE
5
141
100
AcDbEntity
8
0
100
AcDbLine
10
-130
20
70
30
0
11
-130
21
-70
31
0
0
ENDSEC
0
SECTION
2
OBJECTS
0
DICTIONARY
5
C
100
AcDbDictionary
3
ACAD_GROUP
350
D
3
ACAD_MLINESTYLE
350
17
0
DICTIONARY
5
D
100
AcDbDictionary
0
DICTIONARY
5
1A
330
C
100
AcDbDictionary
0
DICTIONARY
5
17
100
AcDbDictionary
0
ENDSEC
0
EOF
